inDegrees=no
num_controls=7
num_derivatives=13
num_iterations=127
num_multipliers=7
num_parameters=0
num_slacks=7
num_states=26
objective=0.497059
objective_accelerations=0.032145
objective_balance=0.003275
objective_effort=0.034974
objective_height=0.421187
objective_ligament=0.005479
solver_duration=1454.076080
status=Solve_Succeeded
success=true
DataType=double
version=3
OpenSimVersion=4.5
endheader
time	/jointset/ground_pelvis/pelvis_tilt/value	/jointset/ground_pelvis/pelvis_tx/value	/jointset/ground_pelvis/pelvis_ty/value	/jointset/hip_r/hip_flexion_r/value	/jointset/hip_r/hip_adduction_r/value	/jointset/hip_r/hip_rotation_r/value	/jointset/back/lumbar_extension/value	/jointset/patellofemoral_r/patellar_flexion_r/value	/jointset/knee_r/knee_flexion_r/value	/jointset/knee_r/knee_adduction_r/value	/jointset/knee_r/knee_rotation_r/value	/jointset/ankle_r/ankle_angle_r/value	/jointset/subtalar_r/subtalar_angle_r/value	/jointset/ground_pelvis/pelvis_tilt/speed	/jointset/ground_pelvis/pelvis_tx/speed	/jointset/ground_pelvis/pelvis_ty/speed	/jointset/hip_r/hip_flexion_r/speed	/jointset/hip_r/hip_adduction_r/speed	/jointset/hip_r/hip_rotation_r/speed	/jointset/back/lumbar_extension/speed	/jointset/patellofemoral_r/patellar_flexion_r/speed	/jointset/knee_r/knee_flexion_r/speed	/jointset/knee_r/knee_adduction_r/speed	/jointset/knee_r/knee_rotation_r/speed	/jointset/ankle_r/ankle_angle_r/speed	/jointset/subtalar_r/subtalar_angle_r/speed	/forceset/tau_hip_flexion_r	/forceset/tau_hip_adduction_r	/forceset/tau_hip_rotation_r	/forceset/tau_knee_flexion_r	/forceset/tau_ankle_angle_r	/forceset/tau_subtalar_angle_r	/forceset/tau_lumbar_extension	lambda_cid13_p0	lambda_cid14_p0	lambda_cid14_p1	lambda_cid14_p2	lambda_cid14_p3	lambda_cid14_p4	lambda_cid14_p5	/jointset/ground_pelvis/pelvis_tilt/accel	/jointset/ground_pelvis/pelvis_tx/accel	/jointset/ground_pelvis/pelvis_ty/accel	/jointset/hip_r/hip_flexion_r/accel	/jointset/hip_r/hip_adduction_r/accel	/jointset/hip_r/hip_rotation_r/accel	/jointset/back/lumbar_extension/accel	/jointset/patellofemoral_r/patellar_flexion_r/accel	/jointset/knee_r/knee_flexion_r/accel	/jointset/knee_r/knee_adduction_r/accel	/jointset/knee_r/knee_rotation_r/accel	/jointset/ankle_r/ankle_angle_r/accel	/jointset/subtalar_r/subtalar_angle_r/accel	gamma_cid13_p0	gamma_cid14_p0	gamma_cid14_p1	gamma_cid14_p2	gamma_cid14_p3	gamma_cid14_p4	gamma_cid14_p5
1	-0.1801444016332494	0.0385535314357111	0.7505335780398452	1.093867359252609	-0.2364508625679763	-0.07156788343846762	-0.4362737959250234	1.156177775354575	1.156177775354637	-0.02895485559060421	0.1745176446156247	0.4363024236976907	0.1035778403556262	-0.0005151316579173473	0.004450538029734894	0.01320867356142592	-0.03745597451765515	0.001947566402301022	-0.01057945309321474	0.005664978656264818	-0.04757911562463054	-0.04757911562463118	0.0002817351642308348	-0.0001412767805248696	-0.01092382729078056	-0.0006691242020511622	-0.1980644923023534	0.02939758447778602	0.01347186816749791	-0.4457882331264427	-0.04063867676915937	0.004536893901589792	0.2441988111077038	-3.168636594495883	-60.39263610134356	-8.981801835994409	2.32352219133772	20.24635743764864	-771.9321975097376	55.16851401611993	0.9372989392739922	0.01400576315285828	1.246780144461537	-3.906784415736851	0.1210485762639493	-0.5899320247566117	0.3249458950846435	-4.367521100293469	-4.367521100293475	0.4912906544869007	-0.001418040375859164	-1.586169794599826	-0.3959081000162235	9.770448289243418e-10	-2.09716610945567e-09	3.272270706141825e-09	8.727575763827851e-09	6.10438026501326e-09	-3.541149975608986e-09	1.737633247612956e-09
1.01	-0.1801037276998006	0.03859888459806003	0.7507278486353852	1.093298513728187	-0.2364254533461293	-0.07170258655643481	-0.4361988851465599	1.155483830274924	1.155483830274872	-0.02892680142367044	0.1745161059404628	0.4361140372379634	0.1035512004376552	0.008605292403269169	0.004636652958526086	0.0256426253149679	-0.07629257400298715	0.003131583896027685	-0.01635944285480063	0.009451720532656086	-0.09121926335611577	-0.09121926335611587	0.005337968767473743	-0.0001645400038947777	-0.02673929580968731	-0.004657232541535632	-0.1986313232547375	0.02948315575122873	0.01347368386132012	-0.4453643969884866	-0.04086497908724162	0.004539592474655456	0.2448282519607346	-3.196807108070361	-60.47309324014503	-8.989954794595864	2.319382044899879	20.09492503955363	-772.2322421980772	55.11885940804257	0.8927210095940474	0.02339925387403434	1.241278357892605	-3.869013682971568	0.1166772895926656	-0.5717720407482586	0.425719858295966	-4.363666450374148	-4.363666450374002	0.5141209955972051	-0.002489155618991976	-1.577110725850623	-0.4000150199482239	1.907017922174209e-09	-1.283988516735194e-09	7.208801142574101e-09	1.630501386105929e-08	5.596260822383461e-09	-6.461338171935492e-09	6.031243409560578e-09
1.02	-0.1799731881517309	0.03864659588892353	0.7510463738818789	1.092341919015293	-0.2363882841586068	-0.07189503748980182	-0.436082070644458	1.154353202749798	1.154353202749636	-0.02884791866422526	0.1745143928946029	0.4357679210239819	0.1034847288724836	0.01745799126657624	0.004922163732647286	0.0380596037521262	-0.1150058122099287	0.004299559536378012	-0.02212901617192928	0.01404572338422136	-0.134915604719525	-0.1349156047195246	0.01044745366488646	-0.0001761509193220476	-0.04246977814117401	-0.008635453642366979	-0.1991981542071883	0.02956872702467063	0.01347549955511154	-0.4449405608505417	-0.0410912814053213	0.004542291047721437	0.2454576928137036	-3.243035361705129	-60.56381314556383	-8.994757677142896	2.308828710003385	19.96412416223075	-772.6970890990963	55.09441539978236	0.8837538996980773	0.03388493221890827	1.243385481184802	-3.882112160058804	0.117840205588666	-0.5878487358651386	0.4863980901194175	-4.378759826678254	-4.378759826678267	0.501940913320903	0.0009124212126805989	-1.569172557115735	-0.3939306522855962	2.804544973664774e-09	-5.062334443254388e-10	9.925562656624909e-09	2.483282136750916e-08	5.366522717907623e-09	-8.443182778060181e-09	8.519861153066305e-09
1.03	-0.1797553990113646	0.03869766281766519	0.7514889424366444	1.090998806800808	-0.2363395187924356	-0.07214511121759337	-0.4359153834204908	1.152785386253474	1.152785386253356	-0.0287176637550057	0.1745126077615448	0.435264922213271	0.1033785296545972	0.02605904761739875	0.005308227746157807	0.05044682667650181	-0.1535937088493487	0.005450832899236501	-0.02788143184849191	0.01941906016654191	-0.178651301083017	-0.1786513010830193	0.01561329063899024	-0.0001813149495934715	-0.05811602825910971	-0.01260166410732108	-0.1995229603596365	0.02959317084264024	0.01348662763418659	-0.444303080567488	-0.04111796786063027	0.004511178680779169	0.2458800258198983	-3.307699823914652	-60.57015400937772	-8.997937261853703	2.296265227586769	19.79210529609002	-772.7930819234222	55.04151094543902	0.8421642571290934	0.04351902217755395	1.235296524352946	-3.843689261574828	0.1133747858842605	-0.5682904694638603	0.5819022858476415	-4.371516267587038	-4.371516267587369	0.5253705249681854	-0.001289464442175084	-1.560258706053009	-0.3975513078840971	3.701740943096569e-09	2.711601737954312e-10	1.262987754901875e-08	3.337032652099188e-08	5.139625239331315e-09	-1.041545244959097e-08	1.099006060658792e-08
1.04	-0.1794528227566201	0.03875310076379433	0.7520551643859112	1.089270503450784	-0.2362793199157797	-0.07245257959934319	-0.4356911426659901	1.150780104448235	1.150780104448164	-0.02853545738893465	0.1745107592583159	0.4346058794079965	0.1032327513192055	0.03441541414241073	0.005796367210144356	0.06279028265237643	-0.1920440393164178	0.006586261632089912	-0.03360794696153294	0.02555642949122364	-0.2224086665026039	-0.2224086665026087	0.02083774503361891	-0.0001888249516695091	-0.07367857705386549	-0.01655127714362713	-0.1998477665121255	0.02961761466059683	0.01349775571326551	-0.4436656002844416	-0.04114465431594273	0.004480066313813265	0.2463023588260564	-3.391321588867949	-60.5867228677657	-8.997663947992219	2.277161671480613	19.63914526540454	-773.0544515652459	55.01425573866034	0.8348159345359388	0.05430002231416376	1.234632091484606	-3.854598925588666	0.1146712795876354	-0.5826686231607915	0.6392045985916293	-4.383093637897228	-4.383093637897196	0.5136643974259263	0.0004432268517659235	-1.55243229247967	-0.3906111665559844	4.570157600837704e-09	1.094673773943338e-09	1.473783657054645e-08	4.206451072091682e-08	4.896610411108081e-09	-1.204887359504009e-08	1.264630796153733e-08
1.05	-0.179067850567275	0.03881394276406524	0.7527445518417806	1.087158398024528	-0.2362078648204461	-0.07281717650574261	-0.4354017846382578	1.148337230287978	1.148337230287846	-0.02830069666016591	0.174508844903745	0.4337916485043124	0.1030475469999403	0.04254144434025893	0.006390352387038418	0.07507458099476738	-0.2303500874361055	0.007700874040698786	-0.03930541959523254	0.03243810211599897	-0.2661604916448881	-0.2661604916448942	0.02612550718464526	-0.0001941799232672547	-0.08915155649064101	-0.02048696602345831	-0.1999204767047078	0.02954094238577241	0.01351823835877734	-0.4428126193851964	-0.04094308303486396	0.004429737293149981	0.2465077652383389	-3.494539239538903	-60.5065402570395	-8.983843523503156	2.250241443328933	19.42587218800935	-772.9211915247702	54.9818533033686	0.7958611457233271	0.06469662513107717	1.223431825879857	-3.814562799283499	0.1092826922937782	-0.5623797794896769	0.7310875035005302	-4.370376963058626	-4.370376963058804	0.5379994402247446	-0.001034070978398587	-1.542324633152065	-0.3946458344612754	5.437674905088504e-09	1.919628623529589e-09	1.682715947110958e-08	5.076359114104307e-08	4.65309191570838e-09	-1.367170572404916e-08	1.427711931340636e-08
1.06	-0.1786027451592891	0.03888127438805617	0.7535564029051263	1.084664041108247	-0.2361253783068608	-0.07323856677769142	-0.4350399221024635	1.145457007874165	1.145457007873976	-0.02801272484662532	0.1745068751570912	0.4328231690334853	0.1028230661747248	0.05044205787066887	0.007094291954150283	0.08728300414764174	-0.2684943373207797	0.008792545281158895	-0.04496662006953499	0.04005733110396686	-0.3098783172137568	-0.3098783172137646	0.03147996198702355	-0.0001999033673794334	-0.1045282904824386	-0.02440657833387356	-0.1999931868973209	0.02946427011093985	0.01353872100433434	-0.441959638485956	-0.04074151175378794	0.00437940827247073	0.2467131716505936	-3.618128577544697	-60.43651215868064	-8.966450662315992	2.216640244026223	19.22991162500524	-772.9531719372534	54.97567264326923	0.7897326010482444	0.07629090035777635	1.219457053581292	-3.82223927858601	0.1100830459578699	-0.5754141912813313	0.7867158712301169	-4.376293723214131	-4.376293723214136	0.5270029276963565	0.0003695323488814278	-1.533183203483997	-0.387395852672792	6.427483832709284e-09	2.828616524588037e-09	1.71159360756127e-08	5.997195296508664e-08	4.442335104026283e-09	-1.526611759574787e-08	1.444191492025757e-08
1.07	-0.1780597412647211	0.03895618176757327	0.754489908408296	1.081789122706738	-0.2360321070867791	-0.07371639078531929	-0.4345982988626689	1.142139835467642	1.142139835467452	-0.02767085880156893	0.1745048730556978	0.4317013649289904	0.102559437331886	0.05812059006129795	0.00790422803798814	0.0994000687135108	-0.306452264935134	0.009857318006818602	-0.05059082881302074	0.04838166805977914	-0.3535442407498971	-0.3535442407498982	0.03690522208257918	-0.000201142034887738	-0.1198199204488097	-0.02831762656110414	-0.1997714854679712	0.02934225840430157	0.01356705268509987	-0.4408891093266876	-0.04036186153959249	0.004283889225708149	0.2466489612927357	-3.762979599179925	-60.28886025317439	-8.955763449272435	2.184874494215538	19.0219828680397	-772.5790355784403	54.92414106146434	0.7511957099027314	0.08590241956267769	1.205123597845579	-3.777006332672427	0.1040292037317357	-0.5548145667234059	0.8724452884377323	-4.359954666489537	-4.359954666488459	0.5520849795806614	-0.0004497995648519598	-1.525262321838086	-0.3927136721226225	7.423797633913574e-09	3.7420742688099e-09	1.730893894096369e-08	6.92074042255088e-08	4.233320935095122e-09	-1.685901775163219e-08	1.452873096620356e-08
